<svg width="200" height="200" viewBox="0 0 200 200" fill="none" xmlns="http://www.w3.org/2000/svg">
  <!-- Background Circle (Soft) -->
  <circle cx="100" cy="80" r="75" fill="#fdfbf7" />
  
  <!-- Water Reflection (Subtle) -->
  <ellipse cx="100" cy="115" rx="40" ry="5" fill="#e2e8f0" opacity="0.5" />

  <!-- Mokoro (Traditional Boat) -->
  <path d="M35 95C35 95 65 115 100 115C135 115 165 95 165 95C140 102 60 102 35 95Z" fill="#a0785a" />
  <path d="M35 100C60 108 140 108 165 100C165 100 140 110 100 110C60 110 35 100 35 100Z" fill="#7e5a3f" />

  <!-- Paddle (Long Pole) -->
  <line x1="155" y1="50" x2="45" y2="135" stroke="#5d4037" stroke-width="3" stroke-linecap="round" />

  <!-- Robot Character -->
  <!-- Head -->
  <rect x="84" y="52" width="32" height="24" rx="12" fill="white" stroke="#1e293b" stroke-width="2.5" />
  <rect x="89" y="57" width="22" height="14" rx="7" fill="#1e293b" />
  <circle cx="95" cy="64" r="2" fill="#6366f1" />
  <circle cx="105" cy="64" r="2" fill="#6366f1" />
  <!-- Side "Ears"/Sensors -->
  <rect x="80" y="60" width="4" height="8" rx="2" fill="#1e293b" />
  <rect x="116" y="60" width="4" height="8" rx="2" fill="#1e293b" />
  <path d="M92 52L90 48" stroke="#1e293b" stroke-width="2" stroke-linecap="round" />
  <path d="M108 52L110 48" stroke="#1e293b" stroke-width="2" stroke-linecap="round" />
  
  <!-- Body -->
  <rect x="87" y="76" width="26" height="22" rx="8" fill="white" stroke="#1e293b" stroke-width="2.5" />
  <rect x="94" y="82" width="12" height="6" rx="2" fill="#f1f5f9" />
  
  <!-- Arms (holding paddle) -->
  <path d="M87 85C80 85 70 80 65 75" stroke="#1e293b" stroke-width="2.5" stroke-linecap="round" fill="none" />
  <path d="M113 85C120 85 130 80 135 75" stroke="#1e293b" stroke-width="2.5" stroke-linecap="round" fill="none" />

  <!-- Typography -->
  <text x="100" y="155" text-anchor="middle" font-family="system-ui, sans-serif" font-weight="900" font-size="28" fill="#1b3039">TOURBOTS</text>
  <text x="100" y="174" text-anchor="middle" font-family="system-ui, sans-serif" font-weight="700" font-size="10" fill="#1b3039" letter-spacing="2">GLOBAL SAFARI GUIDANCE</text>
</svg>
